{
    "id": "yago_13537_0",
    "rank": 82,
    "data": {
        "url": "https://1337x.to/torrent/6167042/BluRay-Un-drole-de-paroissien-1963-Jean-Pierre-Mocky-Bourvil-Francis-Blanche-Jean-Poiret/",
        "read_more_link": "",
        "language": "en",
        "title": "Download [BluRay] Un drôle de paroissien (1963) - Jean-Pierre Mocky, Bourvil, Francis Blanche, Jean Poiret Torrent",
        "top_image": "",
        "meta_img": "",
        "images": [
            "https://1337x.to/images/logo.svg",
            "https://1337x.to/images/profile-load.svg",
            "https://1337x.to/images/profile-load.svg",
            "https://1337x.to/images/profile-load.svg",
            "https://1337x.to/images/profile-load.svg",
            "https://1337x.to/images/profile-load.svg",
            "https://1337x.to/images/profile-load.svg"
        ],
        "movies": [],
        "keywords": [],
        "meta_keywords": [
            ""
        ],
        "tags": null,
        "authors": [],
        "publish_date": null,
        "summary": "",
        "meta_description": "",
        "meta_lang": "",
        "meta_favicon": "/favicon.ico",
        "meta_site_name": "",
        "canonical_link": null,
        "text": "----------------------------\n\nSUBTITLES\n\nNone\n\n--------------------------------------------------------\n\nAudio: French\n\n--------------------------------------------------------\n\nGeneral\n\nComplete name: Un.Drole.de.paroissien.1963.FRENCH.1080p.BluRay.AC3-2.0.x264-Dm@r.mkv\n\nFormat : Matroska\n\nFormat version : Version 4\n\nFile size: 1.57 GiB\n\nDuration : 1 h 23 min\n\nOverall bit rate : 2 693 kb/s\n\nFrame rate : 23.976 FPS\n\nMovie name : Un Drôle de paroissien (1963) - Dm@r\n\nEncoded date : 2020-11-09 22:23:32 UTC\n\nWriting application: mkvmerge v47.0.0 ('Black Flag') 64-bit\n\nWriting library: libebml v1.3.10 + libmatroska v1.5.2\n\nVideo\n\nID : 1\n\nFormat : AVC\n\nFormat/Info: Advanced Video Codec\n\nFormat profile : [email protected]\n\nFormat settings: CABAC / 4 Ref Frames\n\nFormat settings, CABAC : Yes\n\nFormat settings, Reference frames: 4 frames\n\nCodec ID : V_MPEG4/ISO/AVC\n\nDuration : 1 h 23 min\n\nBit rate : 2 500 kb/s\n\nWidth: 1 792 pixels\n\nHeight : 1 080 pixels\n\nDisplay aspect ratio : 5:3\n\nFrame rate mode: Constant\n\nFrame rate : 23.976 (24000/1001) FPS\n\nColor space: YUV\n\nChroma subsampling : 4:2:0\n\nBit depth: 8 bits\n\nScan type: Progressive\n\nBits/(Pixel*Frame) : 0.054\n\nStream size: 1.46 GiB (93%)\n\nWriting library: x264 core 157 r2935 545de2f\n\nEncoding settings: cabac=1 / ref=3 / deblock=1:0:0 / analyse=0x3:0x113 / me=hex / subme=7 / psy=1 / psy_rd=1.00:0.00 / mixed_ref=1 / me_range=16 / chroma_me=1 / trellis=1 / 8x8dct=1 / cqm=0 / deadzone=21,11 / fast_pskip=1 / chroma_qp_offset=-2 / threads=9 / lookahead_threads=1 / sliced_threads=0 / nr=0 / decimate=1 / interlaced=0 / bluray_compat=0 / constrained_intra=0 / bframes=3 / b_pyramid=2 / b_adapt=1 / b_bias=0 / direct=1 / weightb=1 / open_gop=0 / weightp=2 / keyint=240 / keyint_min=24 / scenecut=40 / intra_refresh=0 / rc_lookahead=40 / rc=2pass / mbtree=1 / bitrate=2500 / ratetol=1.0 / qcomp=0.60 / qpmin=0 / qpmax=69 / qpstep=4 / cplxblur=20.0 / qblur=0.5 / vbv_maxrate=62500 / vbv_bufsize=78125 / nal_hrd=none / filler=0 / ip_ratio=1.40 / aq=1:1.00\n\nDefault: Yes\n\nForced : No\n\nColor range: Limited\n\nColor primaries: BT.709\n\nTransfer characteristics : BT.709\n\nMatrix coefficients: BT.709\n\nAudio\n\nID : 2\n\nFormat : AC-3\n\nFormat/Info: Audio Coding 3\n\nCommercial name: Dolby Digital\n\nCodec ID : A_AC3\n\nDuration : 1 h 23 min\n\nBit rate mode: Constant\n\nBit rate : 192 kb/s\n\nChannel(s) : 2 channels\n\nChannel layout : L R\n\nSampling rate: 48.0 kHz\n\nFrame rate : 31.250 FPS (1536 SPF)\n\nCompression mode : Lossy\n\nDelay relative to video: -5 ms\n\nStream size: 115 MiB (7%)\n\nLanguage : French\n\nService kind : Complete Main\n\nDefault: Yes\n\nForced : No"
    }
}